<?xml version="1.0" standalone="no"?>
<!DOCTYPE svg PUBLIC "-//W3C//DTD SVG 20010904//EN"
 "http://www.w3.org/TR/2001/REC-SVG-20010904/DTD/svg10.dtd">
<svg version="1.0" xmlns="http://www.w3.org/2000/svg"
 width="130.000000pt" height="127.000000pt" viewBox="0 0 130.000000 127.000000"
 preserveAspectRatio="xMidYMid meet">

<g transform="translate(0.000000,127.000000) scale(0.100000,-0.100000)"
fill="#000000" stroke="none">
<path d="M183 855 c-35 -15 -74 -50 -65 -59 3 -3 0 -6 -7 -6 -12 0 -36 -48
-32 -64 1 -5 -4 -13 -11 -17 -17 -11 18 -38 41 -32 14 3 16 -9 17 -84 2 -199
108 -365 289 -454 208 -102 447 -55 605 118 48 53 100 138 100 164 0 7 -14
-16 -32 -51 -59 -120 -184 -220 -319 -255 -63 -17 -185 -19 -249 -4 -201 46
-355 222 -382 437 -14 110 -5 131 36 85 19 -22 33 -28 59 -27 l34 2 0 -65 c0
-46 -3 -66 -13 -70 -21 -8 -17 -33 15 -88 105 -183 343 -262 537 -178 l39 16
-45 14 c-67 20 -179 36 -210 29 -37 -7 -42 0 -25 41 20 48 19 53 -14 53 -30 0
-171 67 -171 82 0 4 -8 8 -17 8 -38 1 -58 28 -58 80 0 47 13 78 22 53 5 -15
33 -17 33 -3 0 6 15 10 33 10 21 0 38 7 47 20 8 11 22 20 32 20 11 0 18 7 18
19 0 11 4 23 10 26 15 9 12 18 -15 50 -13 17 -36 45 -50 63 -15 17 -30 30 -34
28 -4 -3 -32 8 -63 23 -42 20 -61 24 -77 17 -12 -5 -21 -13 -21 -18 0 -4 -5
-8 -11 -8 -6 0 -9 7 -6 15 9 21 -4 25 -40 10z m118 -227 c4 -45 -7 -60 -15
-21 -16 78 -16 87 -1 72 7 -8 15 -31 16 -51z m-31 10 c0 -19 -2 -20 -10 -8
-13 19 -13 30 0 30 6 0 10 -10 10 -22z m231 -404 c24 -8 85 -18 134 -21 61 -5
82 -9 65 -14 -63 -18 -183 1 -235 37 -25 18 -18 18 36 -2z"/>
<path d="M638 734 c-32 -17 -58 -62 -58 -99 l0 -25 125 0 125 0 0 31 c0 23
-10 42 -39 70 -33 34 -45 39 -82 39 -24 -1 -56 -7 -71 -16z"/>
<path d="M735 503 c-45 -11 -85 -55 -125 -136 l-40 -82 88 -7 c48 -3 108 -13
134 -21 45 -14 47 -14 52 7 9 34 7 152 -4 180 -20 54 -52 72 -105 59z m41 -64
c12 -14 19 -40 22 -86 l5 -66 -29 7 c-16 4 -57 10 -91 13 -35 3 -63 7 -63 9 0
18 55 106 76 123 34 26 56 27 80 0z"/>
<path d="M720 340 c-27 -8 -20 -13 33 -24 22 -5 27 -3 27 14 0 21 -15 24 -60
10z"/>
<path d="M847 468 c14 -25 18 -56 18 -124 l0 -90 48 18 c26 10 56 18 67 18 25
0 25 13 1 66 -23 50 -75 110 -112 130 -40 20 -42 18 -22 -18z"/>
<path d="M992 419 c-19 -7 -21 -12 -12 -29 14 -25 14 -25 34 4 18 29 11 37
-22 25z"/>
</g>
</svg>
